<svg id="レイヤー_2" data-name="レイヤー 2" xmlns="http://www.w3.org/2000/svg" viewBox="0 0 96.12 118.23"><defs><style>.cls-1{fill:#318ccb;}.cls-2{fill:#00b3db;}</style></defs><path class="cls-1" d="M108.22,11.41a4.86,4.86,0,0,1,0,.54L95.06,115.1c-.3,2.38-2.76,4.23-5.49,4.12l-69.19-2.56c-.21,0-.4,0-.6-.07,0,2.13,1.87,3.86,4.4,4l69.19,2.56c2.73.1,5.19-1.75,5.49-4.13L112,15.83C112.3,13.63,110.63,11.77,108.22,11.41Z" transform="translate(-15.93 -4.88)"/><path class="cls-2" d="M52.89,27.42a10.87,10.87,0,0,0-3.79,6.5,10.17,10.17,0,0,0,.28,4,11.4,11.4,0,0,0,1.88,3.75A35.66,35.66,0,0,0,56.2,47a106.76,106.76,0,0,0,8.41,6.63Q66,54.57,75,60.89c6,4.22,10.18,6.53,13,8.68,3.92,3,6,4.59,7.52,6.52a19.77,19.77,0,0,1,3.34,6.19c.11.34.18.71.27,1.08l7-54.89c-8.57-4.17-22.32-7.29-29.55-7.56a43.68,43.68,0,0,0-14.38,1.54A23.91,23.91,0,0,0,52.89,27.42Z" transform="translate(-15.93 -4.88)"/><path class="cls-2" d="M51.85,103.5a49.65,49.65,0,0,0,13.9-1.34,23.28,23.28,0,0,0,10.18-4.89,12.06,12.06,0,0,0,4.16-7.62,10.32,10.32,0,0,0-.47-4.81,14.16,14.16,0,0,0-2.89-4.63,55,55,0,0,0-7.55-6.49q-5.43-4.11-15.44-11.35l-6.66-4.85A85.83,85.83,0,0,1,40.29,52a43.86,43.86,0,0,1-4.95-5.15,25.18,25.18,0,0,1-2.93-4.42A14.94,14.94,0,0,1,31,38.11,17.17,17.17,0,0,1,31,33.25a19.7,19.7,0,0,1,6.1-11.53q5.31-5.29,15-8.22t24.87-2.36c6.55.24,20.62,1.86,31,3.54l.37-2.94c.29-2.27-1.58-4.18-4.18-4.28L34.4,4.88c-2.6-.09-4.94,1.66-5.23,3.93L18.1,95.61a114.13,114.13,0,0,0,18,5.81A86.6,86.6,0,0,0,51.85,103.5Z" transform="translate(-15.93 -4.88)"/><path class="cls-2" d="M94.68,100A28.23,28.23,0,0,1,84,107.63a64.68,64.68,0,0,1-15.83,4.81,99.72,99.72,0,0,1-16.33.71,132.94,132.94,0,0,1-13.87-1.28c-4.55-.66-13-2.47-21.33-4.49l-.64,5c-.29,2.26,1.58,4.18,4.18,4.27l69.66,2.58c2.6.1,4.94-1.66,5.23-3.92l2.51-19.64A21.59,21.59,0,0,1,94.68,100Z" transform="translate(-15.93 -4.88)"/></svg>